#!OML:ASF G:\JayActor3\Patient Classification 1\Patient 1\Session 5\male.ASF
:FULLY-SPECIFIED
:DEGREES
975
root 52.0923 15.9704 -5.46651 1128.24 88.0567 1129.09
lowerback 0.592643 -0.795423 -2.59489
upperback 2.389 -0.977236 -1.61928
thorax 2.13461 -0.504679 -0.219664
lowerneck -9.00181 0.180552 1.70705
upperneck 13.3163 -0.146488 1.58672
head 5.4984 0.163716 0.209446
rclavicle 1.43622e-014 -3.97569e-015
rhumerus -32.3437 -4.29947 -87.7898
rradius 29.4206
rwrist 1.20606
rhand -19.0753 -6.83281
rfingers 7.12502
rthumb 7.23247 -36.6892
lclavicle 1.43622e-014 -3.97569e-015
lhumerus -27.7823 0.756609 86.4298
lradius 29.7928
lwrist 19.7097
lhand -17.4567 13.052
lfingers 7.12502
lthumb 8.79461 42.8488
rfemur -32.4105 6.94801 20.8126
rtibia 28.2202
rfoot -20.0099 -13.7071
rtoes -9.13936
lfemur 20.5385 11.4931 -25.4313
ltibia 1.145e-013
lfoot -12.7024 3.35908
ltoes -8.35353
976
root 52.2016 15.9626 -5.46493 1130.36 88.1207 1131.17
lowerback 0.590275 -0.807231 -2.56534
upperback 2.38292 -0.993754 -1.60958
thorax 2.12953 -0.512524 -0.226431
lowerneck -8.99163 0.171816 1.70748
upperneck 13.299 -0.156862 1.57862
head 5.49123 0.15777 0.206024
rclavicle 6.85807e-015 8.34896e-015
rhumerus -32.3895 -4.35778 -87.7131
rradius 29.3457
rwrist 1.25858
rhand -19.088 -6.82786
rfingers 7.12502
rthumb 7.22018 -36.6847
lclavicle 6.85807e-015 8.34896e-015
lhumerus -27.7444 0.756082 86.4998
lradius 29.4793
lwrist 19.5542
lhand -17.3956 13.0846
lfingers 7.12502
lthumb 8.85361 42.8789
rfemur -32.4167 6.75877 20.9642
rtibia 27.9948
rfoot -20.0381 -13.716
rtoes -8.86933
lfemur 20.9123 11.5027 -25.3201
ltibia -1.90833e-014
lfoot -12.6832 3.24707
ltoes -8.95485
977
root 52.3121 15.9549 -5.46242 1132.01 88.1905 1132.78
lowerback 0.591452 -0.816847 -2.52436
upperback 2.37863 -1.00778 -1.59129
thorax 2.12416 -0.519063 -0.230692
lowerneck -8.98264 0.164867 1.70225
upperneck 13.2836 -0.164236 1.57189
head 5.48485 0.153128 0.204184
rclavicle -3.65267e-015 3.97569e-016
rhumerus -32.4259 -4.41577 -87.6317
rradius 29.2533
rwrist 1.31511
rhand -19.1012 -6.81633
rfingers 7.12502
rthumb 7.20747 -36.6736
lclavicle -3.65267e-015 3.97569e-016
lhumerus -27.7149 0.777493 86.5647
lradius 29.1743
lwrist 19.3989
lhand -17.3357 13.1193
lfingers 7.12502
lthumb 8.91142 42.9111
rfemur -32.3853 6.65403 21.11
rtibia 27.8183
rfoot -20.0316 -13.7652
rtoes -8.62603
lfemur 21.2997 11.5193 -25.1777
ltibia 3.81667e-014
lfoot -12.6415 3.11374
ltoes -9.57385
978
root 52.4241 15.9476 -5.45926 1133.52 88.2685 1134.26
lowerback 0.595942 -0.829384 -2.4751
upperback 2.37626 -1.026 -1.56728
thorax 2.11891 -0.527636 -0.233743
lowerneck -8.98043 0.160981 1.70304
upperneck 13.2744 -0.167449 1.55688
head 5.48159 0.150334 0.199095
rclavicle 8.79622e-015 5.1684e-015
rhumerus -32.4559 -4.48622 -87.5446
rradius 29.1432
rwrist 1.3916
rhand -19.1117 -6.79379
rfingers 7.12502
rthumb 7.19735 -36.6514
lclavicle 8.79622e-015 5.1684e-015
lhumerus -27.6975 0.822797 86.6221
lradius 28.8805
lwrist 19.2474
lhand -17.2879 13.1519
lfingers 7.12502
lthumb 8.95755 42.9418
rfemur -32.311 6.64064 21.2349
rtibia 27.6784
rfoot -20.0108 -13.8399
rtoes -8.40196
lfemur 21.7031 11.5334 -25.0112
ltibia -6.04305e-014
lfoot -12.5728 2.9645
ltoes -10.237
979
root 52.5379 15.9404 -5.45534 1135.07 88.3537 1135.79
lowerback 0.595883 -0.847907 -2.42544
upperback 2.37508 -1.05217 -1.53746
thorax 2.11762 -0.540311 -0.231258
lowerneck -8.97606 0.163181 1.6996
upperneck 13.2667 -0.162167 1.54503
head 5.4784 0.151718 0.196312
rclavicle 1.04362e-015 -2.06736e-014
rhumerus -32.4875 -4.57146 -87.4511
rradius 29.0288
rwrist 1.49491
rhand -19.1298 -6.76054
rfingers 7.12502
rthumb 7.1799 -36.6187
lclavicle 1.04362e-015 -2.06736e-014
lhumerus -27.6992 0.898861 86.6687
lradius 28.6062
lwrist 19.0957
lhand -17.2425 13.1972
lfingers 7.12502
lthumb 9.0013 42.9852
rfemur -32.194 6.73448 21.3289
rtibia 27.5579
rfoot -19.9939 -13.9308
rtoes -8.21097
lfemur 22.1186 11.5416 -24.8245
ltibia 9.22361e-014
lfoot -12.4727 2.79343
ltoes -10.886
980
root 52.6538 15.9339 -5.4505 1136.68 88.4557 1137.37
lowerback 0.585759 -0.871262 -2.36533
upperback 2.37354 -1.0848 -1.50001
thorax 2.12162 -0.55621 -0.227044
lowerneck -8.96798 0.168473 1.6914
upperneck 13.2608 -0.152375 1.53683
head 5.47516 0.155363 0.195781
rclavicle 7.50412e-015 5.56597e-015
rhumerus -32.5053 -4.66874 -87.3521
rradius 28.8841
rwrist 1.61311
rhand -19.1478 -6.71347
rfingers 7.12502
rthumb 7.1625 -36.5723
lclavicle 7.50412e-015 5.56597e-015
lhumerus -27.719 0.994582 86.7081
lradius 28.3491
lwrist 18.9465
lhand -17.2033 13.2313
lfingers 7.12502
lthumb 9.03917 43.0176
rfemur -32.0407 6.93572 21.4009
rtibia 27.4519
rfoot -19.9893 -14.0326
rtoes -8.08361
lfemur 22.5401 11.5381 -24.6094
ltibia 3.81667e-014
lfoot -12.3359 2.60362
ltoes -11.5032
981
root 52.7719 15.9278 -5.44518 1138.96 88.5776 1139.63
lowerback 0.567358 -0.903686 -2.29336
upperback 2.36864 -1.12969 -1.45778
thorax 2.12681 -0.578116 -0.224858
lowerneck -8.9667 0.173705 1.68721
upperneck 13.268 -0.143083 1.52579
head 5.47716 0.159018 0.193707
rclavicle -5.98839e-015 -9.54166e-015
rhumerus -32.5235 -4.78913 -87.2444
rradius 28.7273
rwrist 1.75506
rhand -19.166 -6.65523
rfingers 7.12502
rthumb 7.1449 -36.5146
lclavicle -5.98839e-015 -9.54166e-015
lhumerus -27.7613 1.10564 86.7395
lradius 28.1103
lwrist 18.8027
lhand -17.166 13.2691
lfingers 7.12502
lthumb 9.07517 43.0538
rfemur -31.8492 7.20934 21.4533
rtibia 27.3537
rfoot -20.0008 -14.1078
rtoes -7.99881
lfemur 22.9663 11.5108 -24.3737
ltibia 3.18055e-015
lfoot -12.1568 2.40199
ltoes -12.1084
982
root 52.8929 15.9222 -5.43988 1143.26 88.6961 1143.91
lowerback 0.5348 -0.952272 -2.23725
upperback 2.35834 -1.19565 -1.41988
thorax 2.1349 -0.610801 -0.218766
lowerneck -8.95792 0.183277 1.68941
upperneck 13.2808 -0.128051 1.51127
head 5.47962 0.165656 0.189921
rclavicle -6.53505e-015 -7.15625e-015
rhumerus -32.5441 -4.91205 -87.1369
rradius 28.5558
rwrist 1.90327
rhand -19.1698 -6.60371
rfingers 7.12502
rthumb 7.14127 -36.4632
lclavicle -6.53505e-015 -7.15625e-015
lhumerus -27.8327 1.23861 86.7566
lradius 27.8914
lwrist 18.6637
lhand -17.1276 13.295
lfingers 7.12502
lthumb 9.11223 43.0782
rfemur -31.6242 7.50617 21.4651
rtibia 27.2652
rfoot -20.015 -14.1291
rtoes -7.97321
lfemur 23.3955 11.4499 -24.1537
ltibia -2.54444e-014
lfoot -11.9374 2.19146
ltoes -12.6952
983
root 53.0173 15.9173 -5.43451 1149.83 88.8162 1150.45
lowerback 0.483995 -1.00914 -2.17463
upperback 2.34067 -1.27252 -1.38208
thorax 2.1456 -0.648866 -0.216879
lowerneck -8.9488 0.190307 1.69515
upperneck 13.3142 -0.115924 1.48979
head 5.48846 0.170972 0.18322
rclavicle 1.9456e-014 8.34896e-015
rhumerus -32.5786 -5.04418 -87.0211
rradius 28.3812
rwrist 2.03933
rhand -19.1652 -6.5642
rfingers 7.12502
rthumb 7.14568 -36.4236
lclavicle 1.9456e-014 8.34896e-015
lhumerus -27.9333 1.3691 86.7717
lradius 27.6894
lwrist 18.5333
lhand -17.0837 13.3208
lfingers 7.12502
lthumb 9.15459 43.1021
rfemur -31.3694 7.81601 21.4606
rtibia 27.1916
rfoot -20.0225 -14.0896
rtoes -7.98481
lfemur 23.8278 11.3547 -23.9306
ltibia 5.725e-014
lfoot -11.684 1.96628
ltoes -13.2681
984
root 53.1455 15.9129 -5.42942 1159.77 88.9129 1160.37
lowerback 0.414284 -1.07813 -2.11639
upperback 2.31563 -1.36525 -1.34638
thorax 2.15956 -0.694951 -0.215345
lowerneck -8.94462 0.194753 1.70427
upperneck 13.3719 -0.106711 1.45994
head 5.50573 0.17491 0.173195
rclavicle 4.5969e-015 8.74653e-015
rhumerus -32.6406 -5.17898 -86.8977
rradius 28.2196
rwrist 2.15802
rhand -19.1598 -6.53912
rfingers 7.12502
rthumb 7.15094 -36.3983
lclavicle 4.5969e-015 8.74653e-015
lhumerus -28.0594 1.50233 86.7842
lradius 27.4967
lwrist 18.4101
lhand -17.0442 13.3433
lfingers 7.12502
lthumb 9.19265 43.123
rfemur -31.087 8.10509 21.4369
rtibia 27.1405
rfoot -20.0169 -13.9575
rtoes -7.97625
lfemur 24.2661 11.2212 -23.7184
ltibia -5.40694e-014
lfoot -11.3969 1.73422
ltoes -13.8636
985
root 53.2779 15.9088 -5.42459 1173.05 88.9613 1173.62
lowerback 0.320043 -1.15414 -2.058
upperback 2.28711 -1.46683 -1.31173
thorax 2.18374 -0.745529 -0.215769
lowerneck -8.94156 0.19541 1.70642
upperneck 13.4498 -0.10126 1.42806
head 5.52947 0.176912 0.163451
rclavicle 1.27719e-014 -1.98785e-015
rhumerus -32.7317 -5.31918 -86.7619
rradius 28.077
rwrist 2.25085
rhand -19.1557 -6.53268
rfingers 7.12502
rthumb 7.15488 -36.3917
lclavicle 1.27719e-014 -1.98785e-015
lhumerus -28.2 1.63089 86.7997
lradius 27.3057
lwrist 18.2908
lhand -16.9995 13.3508
lfingers 7.12502
lthumb 9.23586 43.1285
rfemur -30.7776 8.36624 21.4037
rtibia 27.1195
rfoot -19.9738 -13.7432
rtoes -8.04442
lfemur 24.7137 11.0534 -23.5144
ltibia -2.8625e-014
lfoot -11.0778 1.50236
ltoes -14.4595
